<svg width="12" height="15" viewBox="0 0 12 15" fill="none" xmlns="http://www.w3.org/2000/svg">
<path d="M5.25142 9.25568H7.1946L8.5625 11.0391L9.2081 11.8317L11.3878 14.6761H9.3679L7.91051 12.7777L7.41193 12.0874L5.25142 9.25568ZM11.8097 6.95455C11.8097 8.35227 11.554 9.55398 11.0426 10.5597C10.5313 11.5611 9.83026 12.3324 8.93963 12.8736C8.05327 13.4105 7.04545 13.679 5.91619 13.679C4.78267 13.679 3.7706 13.4105 2.87997 12.8736C1.99361 12.3324 1.29474 11.5589 0.783381 10.5533C0.272017 9.54759 0.0163353 8.34801 0.0163353 6.95455C0.0163353 5.55682 0.272017 4.35724 0.783381 3.35582C1.29474 2.35014 1.99361 1.57883 2.87997 1.0419C3.7706 0.50071 4.78267 0.230113 5.91619 0.230113C7.04545 0.230113 8.05327 0.50071 8.93963 1.0419C9.83026 1.57883 10.5313 2.35014 11.0426 3.35582C11.554 4.35724 11.8097 5.55682 11.8097 6.95455ZM9.85369 6.95455C9.85369 5.8892 9.68111 4.99219 9.33594 4.26349C8.99503 3.53054 8.52628 2.97656 7.92969 2.60156C7.33736 2.2223 6.66619 2.03267 5.91619 2.03267C5.16193 2.03267 4.48864 2.2223 3.89631 2.60156C3.30398 2.97656 2.83523 3.53054 2.49006 4.26349C2.14915 4.99219 1.97869 5.8892 1.97869 6.95455C1.97869 8.01989 2.14915 8.91903 2.49006 9.65199C2.83523 10.3807 3.30398 10.9347 3.89631 11.3139C4.48864 11.6889 5.16193 11.8764 5.91619 11.8764C6.66619 11.8764 7.33736 11.6889 7.92969 11.3139C8.52628 10.9347 8.99503 10.3807 9.33594 9.65199C9.68111 8.91903 9.85369 8.01989 9.85369 6.95455Z" fill="#948260"/>
</svg>
